:version 1.10
:name ASF
:units
  mass 1
  length 1
  angle deg
:documentation
  ASF file generated by Kaydara
:root
  axis xyz
  order  tx ty tz rx ry rz
  position 0 0 0
  orientation 0 0 0
:bonedata
  begin
    id 1
    name RightUpLegDummy
    direction -0.65628 -0.754516 0.00165102
    length 4.76918
    axis 0 0 0 xyz
  end
  begin
    id 2
    name RightUpLeg
    direction -0.145584 -0.923362 0.355256
    length 17.9961
    axis -24.7611 -13.1006 1.78531 xyz
    dof rx ry rz
  end
  begin
    id 3
    name RightLeg
    direction 0.263379 0.172355 -0.949171
    length 13.3386
    axis 89.6202 -21.1929 12.3855 xyz
    dof rx ry rz
  end
  begin
    id 4
    name RightFoot
    direction 0.224283 -0.968777 -0.105675
    length 5.86697
    axis 56.995 -39.6905 17.3365 xyz
    dof rx ry rz
  end
  begin
    id 5
    name RightToes
    direction -0.0806345 -0.9037 0.420506
    length 4.75197
    axis 146.825 -39.7828 17.6019 xyz
    dof rx ry rz
  end
  begin
    id 6
    name SpineDummy
    direction -3.39852e-014 1 9.33296e-014
    length 8.13779
    axis 0 0 0 xyz
  end
  begin
    id 7
    name Spine
    direction -0.156609 0.733703 0.661176
    length 7.14978
    axis 41.2365 5.68757 17.0844 xyz
    dof rx ry rz
  end
  begin
    id 8
    name Spine1
    direction 0 0 0
    length 0
    axis 42.8809 47.8308 -3.36039 xyz
    dof rx ry rz
  end
  begin
    id 9
    name HEadDummy
    direction 0.546431 0.701947 0.456819
    length 3.55512
    axis 42.8809 47.8308 -3.36039 xyz
  end
  begin
    id 10
    name HEad
    direction 0.23444 0.828559 0.508457
    length 7.35827
    axis 51.1864 49.2662 27.4903 xyz
    dof rx ry rz
  end
  begin
    id 11
    name LeftShoulder1Dummy
    direction 0.431183 0.475873 -0.766568
    length 2.49352
    axis 42.8809 47.8308 -3.36039 xyz
  end
  begin
    id 12
    name LeftShoulder1
    direction 0.268187 -0.383402 -0.883786
    length 4.48604
    axis -119.517 0.106469 35.1736 xyz
    dof rx ry rz
  end
  begin
    id 13
    name LeftArm
    direction 0.380567 -0.703221 -0.600541
    length 10.1142
    axis -5.41825 36.2925 7.8293 xyz
    dof rx ry rz
  end
  begin
    id 14
    name LeftForeArm
    direction 0.541071 -0.732356 -0.413396
    length 9.39839
    axis 4.65387 33.7604 7.81644 xyz
    dof rx ry rz
  end
  begin
    id 15
    name LeftHand
    direction 0.847511 -0.389379 -0.360707
    length 3.66142
    axis 7.65593 21.1436 -24.6758 xyz
    dof rx ry rz
  end
  begin
    id 16
    name RightShoulderDummy
    direction -0.692546 0.541855 0.476208
    length 2.49352
    axis 42.8809 47.8308 -3.36039 xyz
  end
  begin
    id 17
    name RightShoulder
    direction -0.870808 -0.316653 0.376065
    length 4.48602
    axis 141.571 51.133 -100.254 xyz
    dof rx ry rz
  end
  begin
    id 18
    name RightArm
    direction 0.366897 -0.87275 0.322015
    length 10.1142
    axis 92.3258 71.2036 138.917 xyz
    dof rx ry rz
  end
  begin
    id 19
    name RightForeArm
    direction 0.702487 -0.694568 0.155197
    length 9.39835
    axis 153.863 41.5092 -176.604 xyz
    dof rx ry rz
  end
  begin
    id 20
    name RightHand
    direction 0.79502 -0.601276 0.0800636
    length 3.66142
    axis 154.247 4.59222 142.9 xyz
    dof rx ry rz
  end
  begin
    id 21
    name LeftUpLegDummy
    direction 0.65628 -0.754516 0.00165102
    length 4.76919
    axis 0 0 0 xyz
  end
  begin
    id 22
    name LeftUpLeg
    direction -0.1277 -0.689368 0.713067
    length 17.9961
    axis -48.3385 -17.8675 0.791927 xyz
    dof rx ry rz
  end
  begin
    id 23
    name LeftLeg
    direction 0.109849 -0.991246 -0.0732378
    length 13.3386
    axis -2.05791 -7.30784 1.72042 xyz
    dof rx ry rz
  end
  begin
    id 24
    name LeftFoot
    direction 0.0448355 -0.272614 0.961078
    length 5.86697
    axis -18.7733 -7.89606 10.2113 xyz
    dof rx ry rz
  end
  begin
    id 25
    name LeftToes
    direction -0.18506 0.293668 0.937823
    length 4.75197
    axis 71.2267 -7.89606 10.2113 xyz
    dof rx ry rz
  end
:hierarchy
  begin
    root RightUpLegDummy SpineDummy LeftUpLegDummy
    RightUpLegDummy RightUpLeg
    RightUpLeg RightLeg
    RightLeg RightFoot
    RightFoot RightToes
    SpineDummy Spine
    Spine Spine1
    Spine1 HEadDummy LeftShoulder1Dummy RightShoulderDummy
    HEadDummy HEad
    LeftShoulder1Dummy LeftShoulder1
    LeftShoulder1 LeftArm
    LeftArm LeftForeArm
    LeftForeArm LeftHand
    RightShoulderDummy RightShoulder
    RightShoulder RightArm
    RightArm RightForeArm
    RightForeArm RightHand
    LeftUpLegDummy LeftUpLeg
    LeftUpLeg LeftLeg
    LeftLeg LeftFoot
    LeftFoot LeftToes
  end

:SAMPLES-PER-SECOND 30
:FULLY-SPECIFIED
:DEGREES
501
root  -23.539 30.87 -24.3483 -84.8311 -25.9834 -160.66
RightUpLeg  -23.2675 2.52952 -57.4428
RightLeg  -103.607 -10.009 15.1776
RightFoot  18.3662 5.10996 -16.0105
RightToes  -1.27222e-014 -6.36111e-015 6.36111e-015
Spine  -15.364 -7.5895 2.164
Spine1  -12.4286 -14.6917 7.97568
HEad  -34.3723 -30.921 13.5027
LeftShoulder1  6.36111e-015 -1.33558e-015 6.49777e-015
LeftArm  -54.0302 -32.6542 1.68202
LeftForeArm  -13.7541 7.89388 -0.748874
LeftHand  11.1475 18.1419 14.7261
RightShoulder  -4.77083e-015 -6.36111e-015 -3.18055e-015
RightArm  -13.8324 3.90699 -21.8356
RightForeArm  -20.0837 -49.5578 -3.5827
RightHand  20.4036 -19.4514 -49.8797
LeftUpLeg  29.0688 6.55239 58.4701
LeftLeg  -37.1792 -14.968 2.54788
LeftFoot  6.42509 10.0824 -27.7663
LeftToes  1.27222e-014 1.09105e-011 6.96064e-012
502
root  -24.7072 29.7956 -23.1207 -103.434 -29.525 -138.036
RightUpLeg  -28.1681 -2.86743 -57.105
RightLeg  -106.722 -10.9047 11.1994
RightFoot  19.3615 6.41818 -18.2308
RightToes  -1.27222e-014 -6.36111e-015 6.36111e-015
Spine  -11.461 0.0882748 7.91359
Spine1  -9.08718 -9.66333 -6.41871
HEad  -33.7619 -32.1506 13.8941
LeftShoulder1  6.36111e-015 -1.33558e-015 6.49777e-015
LeftArm  -51.5567 -33.0357 5.03721
LeftForeArm  -10.2677 6.71397 -1.34973
LeftHand  11.8271 19.1355 15.1929
RightShoulder  -4.77083e-015 -6.36111e-015 -3.18055e-015
RightArm  -4.86196 1.57444 -19.675
RightForeArm  -21.3085 -33.2315 0.245527
RightHand  12.5467 -17.9818 -30.9191
LeftUpLeg  31.0468 7.71243 56.715
LeftLeg  -33.22 -25.5307 7.30346
LeftFoot  5.89397 12.3095 -34.092
LeftToes  1.27222e-014 1.09105e-011 6.96064e-012
503
root  -25.3459 28.2196 -21.6987 -123.839 -27.4886 -117.718
RightUpLeg  -33.1165 -8.92272 -53.986
RightLeg  -107.967 -12.1827 6.41283
RightFoot  21.0472 7.22194 -19.6619
RightToes  -1.27222e-014 -6.36111e-015 6.36111e-015
Spine  -7.81332 5.52021 13.2488
Spine1  -7.33211 -5.47286 -11.2721
HEad  -30.8874 -31.0323 12.5321
LeftShoulder1  6.36111e-015 -1.33558e-015 6.49777e-015
LeftArm  -46.1029 -27.7763 6.2926
LeftForeArm  -7.36734 3.27992 -3.26985
LeftHand  12.5121 19.8868 16.0623
RightShoulder  -4.77083e-015 -6.36111e-015 -3.18055e-015
RightArm  15.6059 8.20967 -9.73019
RightForeArm  -30.9839 -17.7353 -5.84574
RightHand  5.3375 -11.7893 -13.8963
LeftUpLeg  31.6553 6.30774 52.9427
LeftLeg  -26.9218 -30.1101 7.04183
LeftFoot  5.42754 13.9568 -38.8455
LeftToes  1.27222e-014 1.09105e-011 6.96064e-012
504
root  -25.4087 26.2054 -20.4201 -142.493 -21.5145 -103.035
RightUpLeg  -36.8115 -12.0309 -52.0255
RightLeg  -107.973 -11.9042 6.11102
RightFoot  23.6369 7.76269 -20.6864
RightToes  -1.27222e-014 -6.36111e-015 6.36111e-015
Spine  -4.92436 8.56167 19.2492
Spine1  -5.99134 -3.281 -9.85073
HEad  -25.4596 -29.9952 11.3003
LeftShoulder1  6.36111e-015 -1.33558e-015 6.49777e-015
LeftArm  -36.8346 -19.2523 6.13589
LeftForeArm  -6.46551 -2.4009 -4.0231
LeftHand  13.906 20.6041 19.0762
RightShoulder  -4.77083e-015 -6.36111e-015 -3.18055e-015
RightArm  32.7224 6.44164 -3.44254
RightForeArm  -42.3155 2.40932 -21.4242
RightHand  0.385988 -2.76207 0.636285
LeftUpLeg  31.5637 4.75821 48.0654
LeftLeg  -19.6385 -32.4394 4.67265
LeftFoot  3.56583 13.3655 -39.1808
LeftToes  1.27222e-014 1.09105e-011 6.96064e-012
505
root  -24.9738 24.0203 -19.7284 -157.827 -11.6967 -93.9192
RightUpLeg  -41.455 -11.5426 -51.1219
RightLeg  -107.584 -11.3748 8.94649
RightFoot  24.9169 8.50591 -21.8408
RightToes  -1.27222e-014 -6.36111e-015 6.36111e-015
Spine  -2.70685 9.83393 24.1136
Spine1  -5.34286 -2.34684 -6.06513
HEad  -16.1186 -29.671 10.7197
LeftShoulder1  6.36111e-015 -1.33558e-015 6.49777e-015
LeftArm  -24.5996 -12.167 5.94585
LeftForeArm  -6.17428 -6.25513 -3.41176
LeftHand  15.6605 21.7518 22.1335
RightShoulder  -4.77083e-015 -6.36111e-015 -3.18055e-015
RightArm  49.8114 1.05937 -4.79259
RightForeArm  -59.5742 12.1325 -41.8027
RightHand  -1.5553 3.83898 9.52743
LeftUpLeg  32.7633 7.0219 45.308
LeftLeg  -16.8496 -35.7694 4.12087
LeftFoot  2.82129 12.5192 -37.6073
LeftToes  1.27222e-014 1.09105e-011 6.96064e-012
506
root  -24.2338 21.9136 -19.752 -169.696 -0.273926 -90.1467
RightUpLeg  -47.1485 -11.3712 -49.2212
RightLeg  -106.813 -11.6543 9.15918
RightFoot  23.6861 9.45847 -23.1745
RightToes  -1.27222e-014 -6.36111e-015 6.36111e-015
Spine  -3.2298 10.5669 27.3579
Spine1  -3.7918 -2.01253 -1.122
HEad  -4.30841 -29.2039 10.1044
LeftShoulder1  6.36111e-015 -1.33558e-015 6.49777e-015
LeftArm  -12.6005 -6.35256 5.63035
LeftForeArm  -3.59769 -7.52304 -3.14481
LeftHand  17.4439 23.6123 23.7679
RightShoulder  -4.77083e-015 -6.36111e-015 -3.18055e-015
RightArm  66.5032 -2.14684 -17.3565
RightForeArm  -76.1174 11.6154 -58.19
RightHand  -1.42333 3.62042 8.34413
LeftUpLeg  33.228 10.431 42.4758
LeftLeg  -17.5279 -35.3499 4.36776
LeftFoot  3.50429 13.2053 -38.8059
LeftToes  1.27222e-014 1.09105e-011 6.96064e-012
507
root  -23.2367 20.0434 -20.4226 179.21 10.3789 -89.9487
RightUpLeg  -51.1205 -11.1761 -47.1096
RightLeg  -105.653 -12.2727 6.151
RightFoot  22.3775 9.84098 -23.7156
RightToes  -1.27222e-014 -6.36111e-015 6.36111e-015
Spine  -6.24563 10.6507 29.0743
Spine1  -0.6228 -2.72123 4.90795
HEad  6.34497 -28.3235 8.68018
LeftShoulder1  6.36111e-015 -1.33558e-015 6.49777e-015
LeftArm  -1.96666 -0.073519 5.10277
LeftForeArm  -0.502141 -8.7755 -2.26194
LeftHand  18.8373 25.0365 24.955
RightShoulder  -4.77083e-015 -6.36111e-015 -3.18055e-015
RightArm  76.9358 2.80602 -37.4315
RightForeArm  -85.7956 8.32148 -68.5251
RightHand  -0.0525453 0.858382 -0.746907
LeftUpLeg  31.2017 10.7724 38.5913
LeftLeg  -16.4442 -31.3202 3.10356
LeftFoot  1.86179 12.9867 -39.9692
LeftToes  1.27222e-014 1.09105e-011 6.96064e-012
508
root  -22.33 18.6923 -21.631 167.56 19.2974 -93.0282
RightUpLeg  -52.0287 -8.8357 -47.6522
RightLeg  -105.252 -12.5662 5.60415
RightFoot  22.8643 9.72519 -23.5507
RightToes  -1.27222e-014 -6.36111e-015 6.36111e-015
Spine  -9.95179 9.62537 28.3746
Spine1  3.41466 -3.90765 11.7668
HEad  13.7122 -27.7582 6.56668
LeftShoulder1  6.36111e-015 -1.33558e-015 6.49777e-015
LeftArm  6.59979 8.22723 6.14404
LeftForeArm  1.94216 -13.7688 -1.11893
LeftHand  19.9125 25.4828 26.8363
RightShoulder  -4.77083e-015 -6.36111e-015 -3.18055e-015
RightArm  77.0224 9.32685 -59.8855
RightForeArm  -88.3627 6.82804 -72.1759
RightHand  3.18851 -3.76727 -15.1765
LeftUpLeg  28.0228 11.9897 38.6834
LeftLeg  -15.6154 -30.0645 2.54539
LeftFoot  -0.954556 10.1449 -34.4147
LeftToes  1.27222e-014 1.09105e-011 6.96064e-012
509
root  -21.8079 17.9242 -22.9845 154.95 25.5875 -98.8284
RightUpLeg  -50.1713 -6.28396 -49.5827
RightLeg  -105.924 -12.3391 8.37168
RightFoot  23.7987 9.98184 -23.9456
RightToes  -1.27222e-014 -6.36111e-015 6.36111e-015
Spine  -14.0115 7.49063 24.5069
Spine1  6.94766 -5.38754 20.6868
HEad  19.241 -27.815 3.60838
LeftShoulder1  6.36111e-015 -1.33558e-015 6.49777e-015
LeftArm  14.208 17.3556 9.7024
LeftForeArm  4.63942 -21.3086 -1.19038
LeftHand  20.9683 25.9372 28.5785
RightShoulder  -4.77083e-015 -6.36111e-015 -3.18055e-015
RightArm  74.4603 9.21771 -80.8875
RightForeArm  -86.6688 7.68726 -70.9927
RightHand  10.273 -11.3272 -33.6961
LeftUpLeg  24.4978 13.8052 40.9598
LeftLeg  -18.1493 -25.4499 2.53274
LeftFoot  -2.45754 7.6591 -27.5626
LeftToes  1.27222e-014 1.09105e-011 6.96064e-012
510
root  -21.5217 17.5453 -24.0632 140.705 29.605 -106.02
RightUpLeg  -46.1771 -5.19948 -50.5339
RightLeg  -105.326 -12.1951 9.19862
RightFoot  23.4409 10.6813 -24.9768
RightToes  -1.27222e-014 -6.36111e-015 6.36111e-015
Spine  -16.7781 3.85073 18.5659
Spine1  9.60229 -7.41077 31.9036
HEad  25.1671 -27.0275 -0.522096
LeftShoulder1  6.36111e-015 -1.33558e-015 6.49777e-015
LeftArm  22.9598 26.6184 15.6341
LeftForeArm  8.22012 -28.9931 -1.95682
LeftHand  21.4888 26.65 28.6323
RightShoulder  -4.77083e-015 -6.36111e-015 -3.18055e-015
RightArm  76.9482 5.03904 -93.0224
RightForeArm  -81.8311 9.84696 -68.8038
RightHand  16.1474 -14.8974 -46.295
LeftUpLeg  22.4619 16.2533 44.8642
LeftLeg  -25.6021 -16.1297 1.58498
LeftFoot  -0.984339 6.10149 -21.0491
LeftToes  1.27222e-014 1.09105e-011 6.96064e-012
511
root  -21.218 17.2329 -25.3386 124.661 33.5688 -114.72
RightUpLeg  -40.4748 -4.02015 -50.2695
RightLeg  -104.302 -12.9247 6.26904
RightFoot  23.8048 11.4017 -26.0359
RightToes  -1.27222e-014 -6.36111e-015 6.36111e-015
Spine  -17.0895 -0.0209656 13.3037
Spine1  12.2108 -9.5675 42.4725
HEad  31.1052 -23.6529 -4.95692
LeftShoulder1  6.36111e-015 -1.33558e-015 6.49777e-015
LeftArm  35.0207 35.8937 27.3948
LeftForeArm  12.6943 -38.334 -3.68828
LeftHand  20.3107 25.815 27.2444
RightShoulder  -4.77083e-015 -6.36111e-015 -3.18055e-015
RightArm  84.7229 -0.344407 -92.9722
RightForeArm  -71.782 13.8343 -62.9601
RightHand  17.4606 -14.128 -51.3944
LeftUpLeg  19.6388 16.0078 49.6366
LeftLeg  -30.7153 -3.5458 -4.43692
LeftFoot  -1.03373 2.1505 -7.44605
LeftToes  1.27222e-014 1.09105e-011 6.96064e-012
512
root  -21.2063 16.9513 -26.9033 108.013 36.188 -126.902
RightUpLeg  -34.4988 -4.29367 -48.795
RightLeg  -106.227 -14.942 2.67769
RightFoot  26.2845 11.4614 -26.0553
RightToes  -1.27222e-014 -6.36111e-015 6.36111e-015
Spine  -16.6977 -3.35979 8.19296
Spine1  15.0505 -11.0884 49.9301
HEad  35.5373 -19.4576 -8.00457
LeftShoulder1  6.36111e-015 -1.33558e-015 6.49777e-015
LeftArm  51.8459 40.342 41.5128
LeftForeArm  13.2773 -46.0993 -3.34265
LeftHand  18.4201 23.4199 26.5916
RightShoulder  -4.77083e-015 -6.36111e-015 -3.18055e-015
RightArm  94.8956 -8.26324 -86.9778
RightForeArm  -54.4824 17.5505 -49.5214
RightHand  15.3497 -12.4654 -48.4543
LeftUpLeg  13.4414 15.8489 54.8945
LeftLeg  -31.4749 6.99911 -8.54982
LeftFoot  -4.06369 -0.519565 2.14621
LeftToes  1.27222e-014 1.09105e-011 6.96064e-012
